#!OML:ASF H:\Terrain\Walking\May29\JustinRory\Justin.ASF
:FULLY-SPECIFIED
:DEGREES
1097
root 16.7779 9.82204 -6.72932 -108.024 -87.2678 85.6362
lowerback 42.7606 3.9318 3.20437
upperback 17.8628 3.21178 0.81815
thorax -0.0916041 0.584087 -1.86421
lowerneck -10.0401 19.0008 -2.02111
upperneck 22.6571 27.8173 -6.16019
head 9.47979 12.1841 1.36445
rclavicle -1.39149e-014 3.73715e-014
rhumerus 20.7621 25.5286 -63.139
rradius 71.3965
rwrist 9.39797
rhand 17.9165 14.574
rfingers 7.12502
rthumb 42.5894 -9.8154
lclavicle -1.39149e-014 3.73715e-014
lhumerus 39.6664 -36.8828 70.7046
lradius 52.3255
lwrist -28.21
lhand 28.1475 38.3465
lfingers 7.12502
lthumb 52.034 58.4319
rfemur -67.7676 -12.0864 15.3272
rtibia 74.2513
rfoot 18.7461 -0.00326374
rtoes 19.4764
lfemur -66.1927 8.98703 -14.6404
ltibia 71.7266
lfoot 18.9963 -10.2087
ltoes -7.30015
1098
root 16.7814 9.81828 -6.7269 -106.506 -86.8689 84.0338
lowerback 42.9451 4.09567 3.04271
upperback 17.8065 3.35936 0.749042
thorax -0.204622 0.653104 -1.90915
lowerneck -10.0774 18.7793 -1.17094
upperneck 22.632 27.4882 -6.57342
head 9.65301 12.0385 1.13702
rclavicle -3.77691e-014 1.59028e-014
rhumerus 20.5275 25.1579 -63.1936
rradius 71.3871
rwrist 9.40659
rhand 17.6344 14.3295
rfingers 7.12502
rthumb 42.3253 -10.1506
lclavicle -3.77691e-014 1.59028e-014
lhumerus 39.5351 -37.1297 71.1678
lradius 52.1853
lwrist -28.3809
lhand 28.0251 38.5343
lfingers 7.12502
lthumb 51.9229 58.6856
rfemur -67.767 -12.0904 14.807
rtibia 74.2907
rfoot 18.74 0.0634059
rtoes 19.9967
lfemur -65.941 8.96061 -15.0862
ltibia 71.6577
lfoot 18.6036 -10.158
ltoes -7.10965
1099
root 16.7823 9.82017 -6.72151 -105.054 -86.638 82.5435
lowerback 43.0491 4.05959 2.82307
upperback 17.7189 3.24509 0.73314
thorax -0.348928 0.583078 -1.77825
lowerneck -9.60731 18.9236 -1.63453
upperneck 22.1325 27.6765 -6.63631
head 9.34524 12.1557 1.10424
rclavicle 1.51076e-014 -3.49861e-014
rhumerus 20.6554 25.3356 -63.1971
rradius 71.1923
rwrist 9.55115
rhand 17.339 14.5216
rfingers 7.12502
rthumb 42.0486 -10.0521
lclavicle 1.51076e-014 -3.49861e-014
lhumerus 38.9381 -36.7014 71.9618
lradius 52.1117
lwrist -28.6044
lhand 28.009 38.5009
lfingers 7.12502
lthumb 51.9084 58.6608
rfemur -67.7493 -12.1504 14.4499
rtibia 74.3167
rfoot 18.6777 -0.0695066
rtoes 21.3935
lfemur -65.7025 8.72748 -15.2208
ltibia 71.5528
lfoot 18.336 -10.0286
ltoes -6.46124
1100
root 16.7893 9.82565 -6.71971 -105.716 -86.777 83.2512
lowerback 43.0062 4.02256 2.90778
upperback 17.7259 3.2341 0.796234
thorax -0.328148 0.57861 -1.74992
lowerneck -9.81311 18.9923 -2.1377
upperneck 22.0341 27.7687 -6.27943
head 9.22061 12.2087 1.27432
rclavicle -1.35174e-014 -7.15625e-015
rhumerus 20.8826 25.3349 -63.1728
rradius 71.0068
rwrist 9.72166
rhand 16.5893 15.5583
rfingers 7.12502
rthumb 41.3454 -9.24729
lclavicle -1.35174e-014 -7.15625e-015
lhumerus 38.6643 -36.3671 72.5396
lradius 52.0484
lwrist -28.8046
lhand 28.1895 38.3955
lfingers 7.12502
lthumb 52.072 58.4583
rfemur -67.7406 -12.0733 14.5766
rtibia 74.2818
rfoot 18.6526 -0.201142
rtoes 21.5916
lfemur -65.8078 8.47686 -14.893
ltibia 71.4358
lfoot 18.928 -9.92003
ltoes -6.35145
1101
root 16.7958 9.82741 -6.72291 -106.613 -86.8523 84.2307
lowerback 42.8423 4.06604 2.98528
upperback 17.8209 3.30194 0.77233
thorax -0.168823 0.620721 -1.83439
lowerneck -10.4534 18.9204 -1.49138
upperneck 22.2788 27.7098 -6.48508
head 9.54071 12.149 1.23985
rclavicle -1.47101e-014 3.18055e-015
rhumerus 21.061 25.0767 -63.3073
rradius 70.8654
rwrist 9.79638
rhand 16.5873 15.3689
rfingers 7.12502
rthumb 41.3436 -9.4373
lclavicle -1.47101e-014 3.18055e-015
lhumerus 38.7221 -36.262 72.7169
lradius 51.9917
lwrist -28.9251
lhand 27.9999 38.3144
lfingers 7.12502
lthumb 51.9001 58.4791
rfemur -67.8252 -11.9855 14.6833
rtibia 74.2637
rfoot 18.7652 -0.456099
rtoes 21.9501
lfemur -66.0016 8.47742 -14.8278
ltibia 71.4153
lfoot 19.2739 -9.90371
ltoes -6.87404
1102
root 16.7943 9.82581 -6.71978 -106.434 -86.8064 84.0227
lowerback 42.8385 3.99096 3.15062
upperback 17.8185 3.26843 0.623036
thorax -0.152643 0.627705 -2.06398
lowerneck -10.9778 18.7358 -0.306298
upperneck 22.6138 27.4842 -7.03696
head 10.0034 12 1.02672
rclavicle 3.10104e-014 3.97569e-015
rhumerus 20.9761 24.9153 -63.6031
rradius 70.7948
rwrist 9.87847
rhand 16.5392 15.2582
rfingers 7.12502
rthumb 41.2985 -9.56258
lclavicle 3.10104e-014 3.97569e-015
lhumerus 38.5391 -36.253 72.8854
lradius 52.0156
lwrist -28.9044
lhand 27.7287 38.2323
lfingers 7.12502
lthumb 51.6539 58.5413
rfemur -67.8168 -12.042 14.6258
rtibia 74.2917
rfoot 18.8251 -0.644301
rtoes 22.5892
lfemur -65.8756 8.50104 -14.9476
ltibia 71.5194
lfoot 18.6698 -9.88274
ltoes -7.42316
1103
root 16.7889 9.8213 -6.71227 -105.432 -86.6765 82.9752
lowerback 42.8511 3.87934 3.1525
upperback 17.7888 3.13477 0.531117
thorax -0.190629 0.568916 -2.11677
lowerneck -11.0139 18.8648 -0.360349
upperneck 22.6998 27.6283 -6.81494
head 10.0013 12.0819 1.12243
rclavicle -2.94201e-014 1.51076e-014
rhumerus 20.9951 25.0413 -63.7004
rradius 70.7418
rwrist 9.90027
rhand 16.5826 15.2748
rfingers 7.12502
rthumb 41.3392 -9.53284
lclavicle -2.94201e-014 1.51076e-014
lhumerus 38.1303 -35.9998 73.2878
lradius 52.097
lwrist -28.8305
lhand 27.4176 38.3532
lfingers 7.12502
lthumb 51.3709 58.8252
rfemur -67.8144 -12.1714 14.4556
rtibia 74.3652
rfoot 18.8041 -0.502032
rtoes 22.6257
lfemur -65.7562 8.43508 -15.1243
ltibia 71.655
lfoot 18.1008 -9.84314
ltoes -8.00816
1104
root 16.777 9.80939 -6.71042 -105.842 -86.6084 83.4879
lowerback 42.7402 3.86427 3.02122
upperback 17.7579 3.07512 0.53429
thorax -0.207252 0.533612 -2.02564
lowerneck -11.0532 18.8303 -0.639502
upperneck 22.8404 27.5244 -6.35267
head 9.93778 12.0562 1.27479
rclavicle 6.75868e-015 1.74931e-014
rhumerus 21.131 25.1281 -63.7193
rradius 70.6708
rwrist 9.8318
rhand 16.9803 15.4908
rfingers 7.12502
rthumb 41.7123 -9.1949
lclavicle 6.75868e-015 1.74931e-014
lhumerus 37.7228 -35.6105 73.8024
lradius 52.1375
lwrist -28.803
lhand 26.2401 38.4151
lfingers 7.12502
lthumb 50.2972 59.4804
rfemur -68.0454 -12.1741 14.4546
rtibia 74.4768
rfoot 18.8098 -0.245605
rtoes 21.8153
lfemur -65.9955 8.62128 -15.2901
ltibia 71.8016
lfoot 17.991 -9.98247
ltoes -8.71348
1105
root 16.7685 9.79915 -6.7102 -106.893 -86.6125 84.6516
lowerback 42.6732 3.89502 3.01207
upperback 17.7308 3.11652 0.535212
thorax -0.218565 0.556595 -2.03362
lowerneck -10.9497 18.8498 -1.35878
upperneck 22.5174 27.4965 -5.84063
head 9.61594 12.0913 1.44715
rclavicle -3.57812e-014 1.35174e-014
rhumerus 21.0947 25.0439 -63.7342
rradius 70.6691
rwrist 9.58028
rhand 16.8461 15.5007
rfingers 7.12502
rthumb 41.5865 -9.22636
lclavicle -3.57812e-014 1.35174e-014
lhumerus 37.4764 -35.4457 74.1938
lradius 52.1339
lwrist -28.7776
lhand 25.1846 38.0275
lfingers 7.12502
lthumb 49.3306 59.5947
rfemur -68.2772 -12.1026 14.5316
rtibia 74.5813
rfoot 18.8143 -0.127258
rtoes 20.9592
lfemur -66.2189 8.82802 -15.3544
ltibia 71.8936
lfoot 17.9215 -10.129
ltoes -9.02276
1106
root 16.77 9.80028 -6.70781 -104.83 -86.4194 82.5329
lowerback 42.7438 3.92536 2.86339
upperback 17.7054 3.10421 0.54103
thorax -0.27628 0.540997 -1.94928
lowerneck -10.8058 18.7865 -2.00158
upperneck 21.9569 27.362 -5.51156
head 9.24488 12.0814 1.52841
rclavicle -1.03368e-014 -3.18055e-015
rhumerus 20.9192 25.0495 -63.6748
rradius 70.7393
rwrist 9.37776
rhand 16.1462 14.7131
rfingers 7.12502
rthumb 40.9294 -10.2257
lclavicle -1.03368e-014 -3.18055e-015
lhumerus 37.186 -35.368 74.6306
lradius 52.1702
lwrist -28.7928
lhand 25.6953 37.9797
lfingers 7.12502
lthumb 49.7987 59.3075
rfemur -68.2685 -12.2091 14.2142
rtibia 74.7242
rfoot 18.6699 -0.139389
rtoes 21.5512
lfemur -66.1577 8.70401 -15.6105
ltibia 71.9698
lfoot 17.8567 -10.128
ltoes -8.76021
1107
root 16.7689 9.80527 -6.71302 -105.073 -86.3849 82.5103
lowerback 43.1356 3.99926 2.78203
upperback 17.6467 3.16078 0.60095
thorax -0.451806 0.549115 -1.86986
lowerneck -10.6599 18.7423 -2.22749
upperneck 21.6411 27.2484 -5.33009
head 9.04515 12.0688 1.54917
rclavicle -5.56597e-015 -5.56597e-015
rhumerus 20.7424 25.0138 -63.7251
rradius 70.7781
rwrist 9.42548
rhand 15.6175 14.0891
rfingers 7.12502
rthumb 40.4326 -11.005
lclavicle -5.56597e-015 -5.56597e-015
lhumerus 36.8525 -35.2899 75.027
lradius 52.2888
lwrist -28.9634
lhand 26.4928 38.1345
lfingers 7.12502
lthumb 50.5281 59.0755
rfemur -67.9251 -12.1615 14.0845
rtibia 74.7404
rfoot 18.485 -0.256626
rtoes 22.573
lfemur -65.8281 8.94019 -15.6759
ltibia 71.963
lfoot 17.8877 -10.4598
ltoes -8.20401
1108
root 16.7286 9.77661 -6.71789 -110.196 -86.8198 87.4814
lowerback 43.4253 3.95772 3.14381
upperback 17.5991 3.23949 0.632447
thorax -0.555598 0.597731 -2.05031
lowerneck -10.8304 18.8506 -1.92677
upperneck 21.8256 27.3584 -5.23128
head 9.16608 12.1299 1.59199
rclavicle -7.95139e-016 7.15625e-015
rhumerus 20.7523 24.8903 -64.0188
rradius 70.5863
rwrist 9.29523
rhand 15.39 14.4184
rfingers 7.12502
rthumb 40.2186 -10.7413
lclavicle -7.95139e-016 7.15625e-015
lhumerus 36.6036 -35.1605 75.1389
lradius 52.4126
lwrist -28.9281
lhand 26.6076 37.7025
lfingers 7.12502
lthumb 50.6329 58.5865
rfemur -67.8826 -11.965 14.7153
rtibia 74.9317
rfoot 18.4425 -0.0897941
rtoes 21.2737
lfemur -66.0519 10.1619 -15.5407
ltibia 72.3206
lfoot 17.8065 -11.5135
ltoes -7.99032
1109
root 16.7635 9.80264 -6.71514 -115.158 -87.213 92.5618
lowerback 43.3253 3.85758 3.50681
upperback 17.5922 3.25923 0.682173
thorax -0.514565 0.627811 -2.18628
lowerneck -11.9264 18.9216 -1.66131
upperneck 22.8551 27.3794 -4.32005
head 9.60856 12.1354 2.00644
rclavicle 4.01545e-014 -5.80451e-014
rhumerus 20.9083 24.7846 -64.2171
rradius 70.3711
rwrist 8.99929
rhand 15.6415 14.5918
rfingers 7.12502
rthumb 40.4551 -10.4953
lclavicle 4.01545e-014 -5.80451e-014
lhumerus 36.366 -34.889 75.3825
lradius 52.5299
lwrist -28.5558
lhand 26.4677 37.2661
lfingers 7.12502
lthumb 50.5051 58.2195
rfemur -67.7182 -11.7992 15.3779
rtibia 74.5796
rfoot 18.5352 0.0920109
rtoes 19.3333
lfemur -65.892 9.31205 -14.5599
ltibia 72.2281
lfoot 17.6306 -10.6646
ltoes -9.06881
1110
root 16.7203 9.77147 -6.71133 -115.869 -87.2295 93.3271
lowerback 43.3076 3.88534 3.30598
upperback 17.6055 3.21599 0.825458
thorax -0.518219 0.580144 -1.91829
lowerneck -11.1533 18.9387 -1.80542
upperneck 21.947 27.5029 -5.23768
head 9.28585 12.1829 1.64013
rclavicle -2.98177e-014 7.95139e-015
rhumerus 21.1159 24.9968 -64.0639
rradius 70.4267
rwrist 8.80662
rhand 15.7804 14.2239
rfingers 7.12502
rthumb 40.5857 -10.8228
lclavicle -2.98177e-014 7.95139e-015
lhumerus 36.0007 -34.2692 75.9761
lradius 52.7015
lwrist -28.1468
lhand 26.6595 37.4351
lfingers 7.12502
lthumb 50.6802 58.2932
rfemur -68.0334 -11.8449 15.4275
rtibia 74.8796
rfoot 18.4937 0.237121
rtoes 18.8931
lfemur -66.424 10.3828 -15.1412
ltibia 72.6701
lfoot 17.4982 -11.5428
ltoes -9.06055
1111
root 16.7574 9.80285 -6.71 -112.015 -87.0057 89.4817
lowerback 43.2693 3.96145 2.78143
upperback 17.6349 3.11061 1.00334
thorax -0.523311 0.479745 -1.42872
lowerneck -11.1474 18.9618 -2.25756
upperneck 21.8566 27.5564 -5.05425
head 9.16233 12.2097 1.72951
rclavicle 4.77083e-015 1.74931e-014
rhumerus 21.2941 25.3198 -63.7552
rradius 70.5317
rwrist 8.8353
rhand 15.6212 14.0808
rfingers 7.12502
rthumb 40.436 -11.0122
lclavicle 4.77083e-015 1.74931e-014
lhumerus 35.6193 -33.8001 76.4811
lradius 52.8749
lwrist -27.9111
lhand 26.384 38.0378
lfingers 7.12502
lthumb 50.4287 59.0325
rfemur -67.8642 -11.9845 15.1375
rtibia 74.7495
rfoot 18.4676 0.315146
rtoes 18.9155
lfemur -66.0667 9.30734 -14.9867
ltibia 72.5079
lfoot 17.3711 -10.6882
ltoes -9.88794
